# 3ds Max Wavefront OBJ Exporter v0.99 - (c)2007 guruware
# File Created: 10.10.2022 12:59:08

#
# object Racetrack
#

v  3.3930 94.0883 0.0000
v  5.5859 87.7691 0.0000
v  33.5269 95.2184 0.0000
v  34.9176 101.7611 0.0000
v  7.7789 81.4500 -0.0000
v  32.1362 88.6757 -0.0000
v  5.5859 87.7691 -6.6889
v  33.5269 95.2184 -6.6889
v  45.4425 91.3468 0.0000
v  48.1631 97.4574 0.0000
v  42.7219 85.2362 -0.0000
v  45.4425 91.3468 -6.6889
v  56.2928 85.0824 0.0000
v  60.2244 90.4938 0.0000
v  52.3611 79.6709 -0.0000
v  56.2928 85.0824 -6.6889
v  72.1217 70.5881 0.0000
v  77.0925 75.0639 0.0000
v  67.1509 66.1124 -0.0000
v  72.1217 70.5881 -6.6889
v  88.2448 45.7861 0.0000
v  94.7784 47.2189 0.0000
v  81.7112 44.3532 -0.0000
v  88.2448 45.7861 -6.6889
v  94.3592 29.4518 0.0000
v  100.7207 31.5188 0.0000
v  87.9977 27.3848 -0.0000
v  94.3592 29.4518 -6.6889
v  101.7956 7.6803 0.0000
v  108.4478 8.3795 0.0000
v  95.1433 6.9811 -0.0000
v  101.7956 7.6803 -6.6889
v  99.7586 -7.7002 0.0000
v  105.5329 -11.0766 0.0000
v  93.9844 -4.3239 -0.0000
v  99.7586 -7.7002 -6.6889
v  73.7861 -17.7718 0.0000
v  77.6921 -23.2017 0.0000
v  69.8801 -12.3419 -0.0000
v  73.7861 -17.7718 -6.6889
v  52.1909 -20.8660 0.0000
v  52.9638 -27.5100 0.0000
v  51.4180 -14.2219 -0.0000
v  52.1909 -20.8660 -6.6889
v  37.4936 -13.4843 0.0000
v  33.5625 -18.8960 0.0000
v  41.4248 -8.0725 -0.0000
v  37.4936 -13.4843 -6.6889
v  24.5164 6.8532 0.0000
v  21.8920 0.7007 0.0000
v  27.1409 13.0057 -0.0000
v  24.5164 6.8532 -6.6889
v  10.4071 12.1994 0.0000
v  10.1976 5.5138 0.0000
v  10.6165 18.8850 -0.0000
v  10.4071 12.1994 -6.6889
v  -1.5086 13.8275 0.0000
v  -0.1179 7.2848 0.0000
v  -2.8993 20.3703 -0.0000
v  -1.5086 13.8275 -6.6889
v  -13.7225 3.0058 0.0000
v  -4.7990 2.4872 0.0000
v  -20.3310 4.0393 -0.0000
v  -13.7225 3.0058 -6.6889
v  -10.7572 -16.3409 0.0000
v  -4.0700 -16.4882 0.0000
v  -17.4445 -16.1936 -0.0000
v  -10.7572 -16.3409 -6.6889
v  -16.2092 -31.9676 0.0000
v  -12.8642 -37.7600 0.0000
v  -19.5543 -26.1752 -0.0000
v  -16.2092 -31.9676 -6.6889
v  -30.4340 -35.4716 0.0000
v  -31.6872 -42.0421 0.0000
v  -29.1809 -28.9012 -0.0000
v  -30.4340 -35.4716 -6.6889
v  -44.0432 -29.9835 0.0000
v  -49.0140 -34.4593 0.0000
v  -39.0724 -25.5078 -0.0000
v  -44.0432 -29.9835 -6.6889
v  -51.4075 -19.8475 0.0000
v  -57.2002 -23.1919 0.0000
v  -45.6147 -16.5031 -0.0000
v  -51.4075 -19.8475 -6.6889
v  -56.5034 -8.4019 0.0000
v  -62.8649 -10.4688 0.0000
v  -50.1419 -6.3349 -0.0000
v  -56.5034 -8.4019 -6.6889
v  -70.1200 4.8300 0.0000
v  -76.3295 2.3435 0.0000
v  -63.9104 7.3165 -0.0000
v  -70.1200 4.8300 -6.6889
v  -81.7184 27.3815 0.0000
v  -88.3706 28.0807 0.0000
v  -75.0661 26.6823 -0.0000
v  -81.7184 27.3815 -6.6889
v  -79.1135 39.6365 0.0000
v  -85.4750 41.7035 0.0000
v  -72.7520 37.5695 -0.0000
v  -79.1135 39.6365 -6.6889
v  -74.0175 51.0821 0.0000
v  -79.8103 54.4266 0.0000
v  -68.2248 47.7377 -0.0000
v  -74.0175 51.0821 -6.6889
v  -56.8760 70.7918 0.0000
v  -58.8565 77.1808 0.0000
v  -54.8954 64.4029 -0.0000
v  -56.8760 70.7918 -6.6889
v  -34.7325 63.2580 0.0000
v  -34.9643 69.9429 0.0000
v  -34.5007 56.5732 -0.0000
v  -34.7325 63.2580 -6.6889
v  -23.8823 64.8665 0.0000
v  -26.6029 70.9771 0.0000
v  -21.1616 58.7559 -0.0000
v  -23.8823 64.8665 -6.6889
v  -11.9667 68.7381 0.0000
v  -13.3574 75.2808 0.0000
v  -10.5760 62.1954 -0.0000
v  -11.9667 68.7381 -6.6889
# 120 vertices

vn -0.4663 0.8185 0.3356
vn 0.0000 -0.0000 1.0000
vn -0.0000 -0.0000 1.0000
vn 0.0523 0.9397 0.3380
vn 0.4866 -0.7449 0.4565
vn 0.0173 -0.8833 0.4686
vn -0.0910 0.0963 -0.9912
vn -0.0214 0.1312 -0.9911
vn 0.3791 0.8514 0.3625
vn -0.3717 -0.8348 0.4063
vn 0.0191 0.0430 -0.9989
vn 0.5508 0.7521 0.3618
vn -0.5403 -0.7363 0.4074
vn 0.0291 0.0393 -0.9988
vn 0.7143 0.6014 0.3579
vn -0.6930 -0.5931 0.4100
vn 0.0445 0.0354 -0.9984
vn 0.8355 0.4069 0.3693
vn -0.8028 -0.4249 0.4183
vn 0.0401 0.0345 -0.9986
vn 0.8720 0.3102 0.3787
vn -0.8684 -0.3130 0.3847
vn 0.0061 0.0024 -1.0000
vn 0.9362 0.0830 0.3414
vn -0.8932 -0.1066 0.4368
vn 0.1023 0.0095 -0.9947
vn -0.0000 0.0000 1.0000
vn 0.7662 -0.5630 0.3098
vn -0.6077 0.5460 0.5767
vn 0.1586 -0.1728 -0.9721
vn 0.2815 -0.8849 0.3711
vn -0.1703 0.8863 0.4306
vn -0.0051 -0.0596 -0.9982
vn 0.0000 0.0000 1.0000
vn -0.0907 -0.9369 0.3377
vn 0.2461 0.8357 0.4909
vn -0.0632 -0.1338 -0.9890
vn -0.6182 -0.7124 0.3321
vn 0.6313 0.6404 0.4373
vn -0.0905 -0.0804 -0.9926
vn -0.6066 -0.6296 0.4854
vn 0.5542 0.7618 0.3354
vn 0.1283 0.0887 -0.9878
vn -0.2630 -0.8705 0.4159
vn 0.1998 0.9096 0.3643
vn 0.0240 0.0482 -0.9985
vn 0.2865 -0.7961 0.5331
vn -0.2849 0.9045 0.3174
vn -0.0719 0.1749 -0.9819
vn 0.8063 -0.3938 0.4415
vn -0.9046 0.2887 0.3136
vn -0.2349 0.1390 -0.9620
vn 0.9255 -0.1529 0.3465
vn -0.9050 0.0310 0.4243
vn 0.1078 -0.0179 -0.9940
vn 0.5919 -0.7425 0.3137
vn -0.6509 0.4940 0.5764
vn 0.1890 -0.1266 -0.9738
vn -0.0993 -0.9385 0.3307
vn 0.0003 0.8842 0.4671
vn 0.0075 -0.1404 -0.9901
vn -0.6014 -0.7233 0.3393
vn 0.5001 0.7270 0.4705
vn -0.0599 -0.1142 -0.9916
vn -0.8071 -0.4660 0.3625
vn 0.7913 0.4569 0.4063
vn -0.0407 -0.0235 -0.9989
vn -0.7165 -0.5384 0.4435
vn 0.7799 0.5142 0.3569
vn 0.0592 0.0738 -0.9955
vn -0.7687 -0.5325 0.3543
vn 0.7076 0.5653 0.4239
vn -0.0497 -0.0611 -0.9969
vn -0.9392 -0.0831 0.3331
vn 0.8486 0.1819 0.4968
vn -0.1505 -0.0600 -0.9868
vn -0.8864 0.2880 0.3625
vn 0.8690 -0.2824 0.4063
vn -0.0447 0.0145 -0.9989
vn -0.7838 0.5110 0.3530
vn 0.7776 -0.4749 0.4121
vn -0.0546 0.0383 -0.9978
vn -0.2563 0.9177 0.3037
vn 0.1970 -0.7744 0.6012
vn -0.0540 0.2444 -0.9682
vn 0.0885 0.8957 0.4358
vn -0.0831 -0.9372 0.3388
vn -0.0234 -0.1054 -0.9942
vn -0.1897 0.8925 0.4093
vn 0.2244 -0.9010 0.3712
vn 0.0018 -0.0392 -0.9992
vn -0.5193 0.7120 0.4726
vn 0.4722 -0.8088 0.3505
vn 0.1055 -0.0808 -0.9911
# 94 vertex normals

vt 0.0000 0.0000 0.0000
vt 0.2500 0.0000 0.0000
vt 0.2500 0.0333 0.0000
vt 0.0000 0.0333 0.0000
vt 0.5000 0.0000 0.0000
vt 0.5000 0.0333 0.0000
vt 0.7500 0.0000 0.0000
vt 0.7500 0.0333 0.0000
vt 1.0000 0.0000 0.0000
vt 1.0000 0.0333 0.0000
vt 0.2500 0.0667 0.0000
vt 0.0000 0.0667 0.0000
vt 0.5000 0.0667 0.0000
vt 0.7500 0.0667 0.0000
vt 1.0000 0.0667 0.0000
vt 0.2500 0.1000 0.0000
vt 0.0000 0.1000 0.0000
vt 0.5000 0.1000 0.0000
vt 0.7500 0.1000 0.0000
vt 1.0000 0.1000 0.0000
vt 0.2500 0.1333 0.0000
vt 0.0000 0.1333 0.0000
vt 0.5000 0.1333 0.0000
vt 0.7500 0.1333 0.0000
vt 1.0000 0.1333 0.0000
vt 0.2500 0.1667 0.0000
vt 0.0000 0.1667 0.0000
vt 0.5000 0.1667 0.0000
vt 0.7500 0.1667 0.0000
vt 1.0000 0.1667 0.0000
vt 0.2500 0.2000 0.0000
vt 0.0000 0.2000 0.0000
vt 0.5000 0.2000 0.0000
vt 0.7500 0.2000 0.0000
vt 1.0000 0.2000 0.0000
vt 0.2500 0.2333 0.0000
vt 0.0000 0.2333 0.0000
vt 0.5000 0.2333 0.0000
vt 0.7500 0.2333 0.0000
vt 1.0000 0.2333 0.0000
vt 0.2500 0.2667 0.0000
vt 0.0000 0.2667 0.0000
vt 0.5000 0.2667 0.0000
vt 0.7500 0.2667 0.0000
vt 1.0000 0.2667 0.0000
vt 0.2500 0.3000 0.0000
vt 0.0000 0.3000 0.0000
vt 0.5000 0.3000 0.0000
vt 0.7500 0.3000 0.0000
vt 1.0000 0.3000 0.0000
vt 0.2500 0.3333 0.0000
vt 0.0000 0.3333 0.0000
vt 0.5000 0.3333 0.0000
vt 0.7500 0.3333 0.0000
vt 1.0000 0.3333 0.0000
vt 0.2500 0.3667 0.0000
vt 0.0000 0.3667 0.0000
vt 0.5000 0.3667 0.0000
vt 0.7500 0.3667 0.0000
vt 1.0000 0.3667 0.0000
vt 0.2500 0.4000 0.0000
vt 0.0000 0.4000 0.0000
vt 0.5000 0.4000 0.0000
vt 0.7500 0.4000 0.0000
vt 1.0000 0.4000 0.0000
vt 0.2500 0.4333 0.0000
vt 0.0000 0.4333 0.0000
vt 0.5000 0.4333 0.0000
vt 0.7500 0.4333 0.0000
vt 1.0000 0.4333 0.0000
vt 0.2500 0.4667 0.0000
vt 0.0000 0.4667 0.0000
vt 0.5000 0.4667 0.0000
vt 0.7500 0.4667 0.0000
vt 1.0000 0.4667 0.0000
vt 0.2500 0.5000 0.0000
vt 0.0000 0.5000 0.0000
vt 0.5000 0.5000 0.0000
vt 0.7500 0.5000 0.0000
vt 1.0000 0.5000 0.0000
vt 0.2500 0.5333 0.0000
vt 0.0000 0.5333 0.0000
vt 0.5000 0.5333 0.0000
vt 0.7500 0.5333 0.0000
vt 1.0000 0.5333 0.0000
vt 0.2500 0.5667 0.0000
vt 0.0000 0.5667 0.0000
vt 0.5000 0.5667 0.0000
vt 0.7500 0.5667 0.0000
vt 1.0000 0.5667 0.0000
vt 0.2500 0.6000 0.0000
vt 0.0000 0.6000 0.0000
vt 0.5000 0.6000 0.0000
vt 0.7500 0.6000 0.0000
vt 1.0000 0.6000 0.0000
vt 0.2500 0.6333 0.0000
vt 0.0000 0.6333 0.0000
vt 0.5000 0.6333 0.0000
vt 0.7500 0.6333 0.0000
vt 1.0000 0.6333 0.0000
vt 0.2500 0.6667 0.0000
vt 0.0000 0.6667 0.0000
vt 0.5000 0.6667 0.0000
vt 0.7500 0.6667 0.0000
vt 1.0000 0.6667 0.0000
vt 0.2500 0.7000 0.0000
vt 0.0000 0.7000 0.0000
vt 0.5000 0.7000 0.0000
vt 0.7500 0.7000 0.0000
vt 1.0000 0.7000 0.0000
vt 0.2500 0.7333 0.0000
vt 0.0000 0.7333 0.0000
vt 0.5000 0.7333 0.0000
vt 0.7500 0.7333 0.0000
vt 1.0000 0.7333 0.0000
vt 0.2500 0.7667 0.0000
vt 0.0000 0.7667 0.0000
vt 0.5000 0.7667 0.0000
vt 0.7500 0.7667 0.0000
vt 1.0000 0.7667 0.0000
vt 0.2500 0.8000 0.0000
vt 0.0000 0.8000 0.0000
vt 0.5000 0.8000 0.0000
vt 0.7500 0.8000 0.0000
vt 1.0000 0.8000 0.0000
vt 0.2500 0.8333 0.0000
vt 0.0000 0.8333 0.0000
vt 0.5000 0.8333 0.0000
vt 0.7500 0.8333 0.0000
vt 1.0000 0.8333 0.0000
vt 0.2500 0.8667 0.0000
vt 0.0000 0.8667 0.0000
vt 0.5000 0.8667 0.0000
vt 0.7500 0.8667 0.0000
vt 1.0000 0.8667 0.0000
vt 0.2500 0.9000 0.0000
vt 0.0000 0.9000 0.0000
vt 0.5000 0.9000 0.0000
vt 0.7500 0.9000 0.0000
vt 1.0000 0.9000 0.0000
vt 0.2500 0.9333 0.0000
vt 0.0000 0.9333 0.0000
vt 0.5000 0.9333 0.0000
vt 0.7500 0.9333 0.0000
vt 1.0000 0.9333 0.0000
vt 0.2500 0.9667 0.0000
vt 0.0000 0.9667 0.0000
vt 0.5000 0.9667 0.0000
vt 0.7500 0.9667 0.0000
vt 1.0000 0.9667 0.0000
vt 0.2500 1.0000 0.0000
vt 0.0000 1.0000 0.0000
vt 0.5000 1.0000 0.0000
vt 0.7500 1.0000 0.0000
vt 1.0000 1.0000 0.0000
# 155 texture coords

o Racetrack
g Racetrack
s 1
f 1/1/1 2/2/2 3/3/3 4/4/4 
f 2/2/2 5/5/5 6/6/6 3/3/3 
f 5/5/5 7/7/7 8/8/8 6/6/6 
f 7/7/7 1/9/1 4/10/4 8/8/8 
f 4/4/4 3/3/3 9/11/3 10/12/9 
f 3/3/3 6/6/6 11/13/10 9/11/3 
f 6/6/6 8/8/8 12/14/11 11/13/10 
f 8/8/8 4/10/4 10/15/9 12/14/11 
f 10/12/9 9/11/3 13/16/3 14/17/12 
f 9/11/3 11/13/10 15/18/13 13/16/3 
f 11/13/10 12/14/11 16/19/14 15/18/13 
f 12/14/11 10/15/9 14/20/12 16/19/14 
f 14/17/12 13/16/3 17/21/3 18/22/15 
f 13/16/3 15/18/13 19/23/16 17/21/3 
f 15/18/13 16/19/14 20/24/17 19/23/16 
f 16/19/14 14/20/12 18/25/15 20/24/17 
f 18/22/15 17/21/3 21/26/3 22/27/18 
f 17/21/3 19/23/16 23/28/19 21/26/3 
f 19/23/16 20/24/17 24/29/20 23/28/19 
f 20/24/17 18/25/15 22/30/18 24/29/20 
f 22/27/18 21/26/3 25/31/3 26/32/21 
f 21/26/3 23/28/19 27/33/22 25/31/3 
f 23/28/19 24/29/20 28/34/23 27/33/22 
f 24/29/20 22/30/18 26/35/21 28/34/23 
f 26/32/21 25/31/3 29/36/3 30/37/24 
f 25/31/3 27/33/22 31/38/25 29/36/3 
f 27/33/22 28/34/23 32/39/26 31/38/25 
f 28/34/23 26/35/21 30/40/24 32/39/26 
f 30/37/24 29/36/3 33/41/27 34/42/28 
f 29/36/3 31/38/25 35/43/29 33/41/27 
f 31/38/25 32/39/26 36/44/30 35/43/29 
f 32/39/26 30/40/24 34/45/28 36/44/30 
f 34/42/28 33/41/27 37/46/27 38/47/31 
f 33/41/27 35/43/29 39/48/32 37/46/27 
f 35/43/29 36/44/30 40/49/33 39/48/32 
f 36/44/30 34/45/28 38/50/31 40/49/33 
f 38/47/31 37/46/27 41/51/34 42/52/35 
f 37/46/27 39/48/32 43/53/36 41/51/34 
f 39/48/32 40/49/33 44/54/37 43/53/36 
f 40/49/33 38/50/31 42/55/35 44/54/37 
f 42/52/35 41/51/34 45/56/34 46/57/38 
f 41/51/34 43/53/36 47/58/39 45/56/34 
f 43/53/36 44/54/37 48/59/40 47/58/39 
f 44/54/37 42/55/35 46/60/38 48/59/40 
f 46/57/38 45/56/34 49/61/34 50/62/41 
f 45/56/34 47/58/39 51/63/42 49/61/34 
f 47/58/39 48/59/40 52/64/43 51/63/42 
f 48/59/40 46/60/38 50/65/41 52/64/43 
f 50/62/41 49/61/34 53/66/34 54/67/44 
f 49/61/34 51/63/42 55/68/45 53/66/34 
f 51/63/42 52/64/43 56/69/46 55/68/45 
f 52/64/43 50/65/41 54/70/44 56/69/46 
f 54/67/44 53/66/34 57/71/27 58/72/47 
f 53/66/34 55/68/45 59/73/48 57/71/27 
f 55/68/45 56/69/46 60/74/49 59/73/48 
f 56/69/46 54/70/44 58/75/47 60/74/49 
f 58/72/47 57/71/27 61/76/27 62/77/50 
f 57/71/27 59/73/48 63/78/51 61/76/27 
f 59/73/48 60/74/49 64/79/52 63/78/51 
f 60/74/49 58/75/47 62/80/50 64/79/52 
f 62/77/50 61/76/27 65/81/27 66/82/53 
f 61/76/27 63/78/51 67/83/54 65/81/27 
f 63/78/51 64/79/52 68/84/55 67/83/54 
f 64/79/52 62/80/50 66/85/53 68/84/55 
f 66/82/53 65/81/27 69/86/27 70/87/56 
f 65/81/27 67/83/54 71/88/57 69/86/27 
f 67/83/54 68/84/55 72/89/58 71/88/57 
f 68/84/55 66/85/53 70/90/56 72/89/58 
f 70/87/56 69/86/27 73/91/34 74/92/59 
f 69/86/27 71/88/57 75/93/60 73/91/34 
f 71/88/57 72/89/58 76/94/61 75/93/60 
f 72/89/58 70/90/56 74/95/59 76/94/61 
f 74/92/59 73/91/34 77/96/34 78/97/62 
f 73/91/34 75/93/60 79/98/63 77/96/34 
f 75/93/60 76/94/61 80/99/64 79/98/63 
f 76/94/61 74/95/59 78/100/62 80/99/64 
f 78/97/62 77/96/34 81/101/34 82/102/65 
f 77/96/34 79/98/63 83/103/66 81/101/34 
f 79/98/63 80/99/64 84/104/67 83/103/66 
f 80/99/64 78/100/62 82/105/65 84/104/67 
f 82/102/65 81/101/34 85/106/34 86/107/68 
f 81/101/34 83/103/66 87/108/69 85/106/34 
f 83/103/66 84/104/67 88/109/70 87/108/69 
f 84/104/67 82/105/65 86/110/68 88/109/70 
f 86/107/68 85/106/34 89/111/34 90/112/71 
f 85/106/34 87/108/69 91/113/72 89/111/34 
f 87/108/69 88/109/70 92/114/73 91/113/72 
f 88/109/70 86/110/68 90/115/71 92/114/73 
f 90/112/71 89/111/34 93/116/34 94/117/74 
f 89/111/34 91/113/72 95/118/75 93/116/34 
f 91/113/72 92/114/73 96/119/76 95/118/75 
f 92/114/73 90/115/71 94/120/74 96/119/76 
f 94/117/74 93/116/34 97/121/2 98/122/77 
f 93/116/34 95/118/75 99/123/78 97/121/2 
f 95/118/75 96/119/76 100/124/79 99/123/78 
f 96/119/76 94/120/74 98/125/77 100/124/79 
f 98/122/77 97/121/2 101/126/2 102/127/80 
f 97/121/2 99/123/78 103/128/81 101/126/2 
f 99/123/78 100/124/79 104/129/82 103/128/81 
f 100/124/79 98/125/77 102/130/80 104/129/82 
f 102/127/80 101/126/2 105/131/2 106/132/83 
f 101/126/2 103/128/81 107/133/84 105/131/2 
f 103/128/81 104/129/82 108/134/85 107/133/84 
f 104/129/82 102/130/80 106/135/83 108/134/85 
f 106/132/83 105/131/2 109/136/3 110/137/86 
f 105/131/2 107/133/84 111/138/87 109/136/3 
f 107/133/84 108/134/85 112/139/88 111/138/87 
f 108/134/85 106/135/83 110/140/86 112/139/88 
f 110/137/86 109/136/3 113/141/2 114/142/89 
f 109/136/3 111/138/87 115/143/90 113/141/2 
f 111/138/87 112/139/88 116/144/91 115/143/90 
f 112/139/88 110/140/86 114/145/89 116/144/91 
f 114/142/89 113/141/2 117/146/2 118/147/92 
f 113/141/2 115/143/90 119/148/93 117/146/2 
f 115/143/90 116/144/91 120/149/94 119/148/93 
f 116/144/91 114/145/89 118/150/92 120/149/94 
f 118/147/92 117/146/2 2/151/2 1/152/1 
f 117/146/2 119/148/93 5/153/5 2/151/2 
f 119/148/93 120/149/94 7/154/7 5/153/5 
f 120/149/94 118/150/92 1/155/1 7/154/7 
# 120 polygons

