# 3ds Max Wavefront OBJ Exporter v0.99 - (c)2007 guruware
# File Created: 15.11.2022 13:05:08

mtllib Racetrack.mtl

#
# object Racetrack
#

v  1.6662 0.0000 -93.1892
v  5.5859 0.0000 -87.7691
v  33.5269 0.0000 -95.2184
v  32.6302 0.0000 -101.8469
v  9.5056 -0.0000 -82.3491
v  34.4235 -0.0000 -88.5899
v  5.5859 -6.6889 -87.7691
v  33.5269 -6.6889 -95.2184
v  45.4425 0.0000 -91.3468
v  48.1631 0.0000 -97.4574
v  42.7219 -0.0000 -85.2362
v  45.4425 -6.6889 -91.3468
v  56.2928 0.0000 -85.0824
v  60.2244 0.0000 -90.4938
v  52.3611 -0.0000 -79.6709
v  56.2928 -6.6889 -85.0824
v  64.8586 0.0000 -61.2039
v  69.8294 0.0000 -65.6797
v  59.8878 -0.0000 -56.7282
v  9.5060 0.0000 -82.3490
v  5.5860 -6.6890 -87.7690
v  1.6940 -6.6890 -64.4400
v  5.0270 0.0000 -58.6410
v  64.8586 -6.6889 -61.2039
v  88.2448 0.0000 -45.7861
v  93.3726 0.0000 -50.0810
v  83.1170 -0.0000 -41.4911
v  88.2448 -6.6889 -45.7861
v  94.3592 0.0000 -29.4518
v  100.7207 0.0000 -31.5188
v  87.9977 -0.0000 -27.3848
v  94.3592 -6.6889 -29.4518
v  101.7956 0.0000 -7.6803
v  108.4478 0.0000 -8.3795
v  95.1433 -0.0000 -6.9811
v  101.7956 -6.6889 -7.6803
v  99.7586 0.0000 7.7002
v  105.5329 0.0000 11.0766
v  93.9844 -0.0000 4.3239
v  99.7586 -6.6889 7.7002
v  73.7861 0.0000 17.7718
v  77.6921 0.0000 23.2017
v  69.8801 -0.0000 12.3419
v  73.7861 -6.6889 17.7718
v  52.1909 0.0000 20.8660
v  52.9638 0.0000 27.5100
v  51.4180 -0.0000 14.2219
v  52.1909 -6.6889 20.8660
v  37.4936 0.0000 13.4843
v  33.5625 0.0000 18.8960
v  41.4248 -0.0000 8.0725
v  37.4936 -6.6889 13.4843
v  24.5164 0.0000 -6.8532
v  21.8920 0.0000 -0.7007
v  27.1409 -0.0000 -13.0057
v  24.5164 -6.6889 -6.8532
v  10.4071 0.0000 -12.1994
v  10.1976 0.0000 -5.5138
v  10.6165 -0.0000 -18.8850
v  10.4071 -6.6889 -12.1994
v  -1.5086 0.0000 -13.8275
v  -0.1179 0.0000 -7.2848
v  -2.8993 -0.0000 -20.3703
v  -1.5086 -6.6889 -13.8275
v  -13.7225 0.0000 -3.0058
v  -4.7990 0.0000 -2.4872
v  -20.3310 -0.0000 -4.0393
v  -13.7225 -6.6889 -3.0058
v  -10.7572 0.0000 16.3409
v  -4.0700 0.0000 16.4882
v  -17.4445 -0.0000 16.1936
v  -50.1420 0.0000 6.3350
v  -56.5030 -6.6890 8.4020
v  -51.4070 -6.6890 19.8480
v  -45.6150 0.0000 16.5030
v  -10.7572 -6.6889 16.3409
v  -16.2092 0.0000 31.9676
v  -12.8642 0.0000 37.7600
v  -19.5543 -0.0000 26.1752
v  -16.2092 -6.6889 31.9676
v  -30.4340 0.0000 35.4716
v  -31.6872 0.0000 42.0421
v  -29.1809 -0.0000 28.9012
v  -30.4340 -6.6889 35.4716
v  -44.0432 0.0000 29.9835
v  -49.0140 0.0000 34.4593
v  -39.0724 -0.0000 25.5078
v  -44.0432 -6.6889 29.9835
v  -51.4075 0.0000 19.8475
v  -57.2002 0.0000 23.1919
v  -45.6147 -0.0000 16.5031
v  -51.4075 -6.6889 19.8475
v  -56.5034 0.0000 8.4019
v  -62.8649 0.0000 10.4688
v  -50.1419 -0.0000 6.3349
v  -56.5034 -6.6889 8.4019
v  -70.1200 0.0000 -4.8300
v  -76.3295 0.0000 -2.3435
v  -63.9104 -0.0000 -7.3165
v  -70.1200 -6.6889 -4.8300
v  -81.7184 0.0000 -27.3815
v  -88.3706 0.0000 -28.0807
v  -75.0661 -0.0000 -26.6823
v  -81.7184 -6.6889 -27.3815
v  -79.1135 0.0000 -39.6365
v  -85.4750 0.0000 -41.7035
v  -72.7520 -0.0000 -37.5695
v  -79.1135 -6.6889 -39.6365
v  -74.0175 0.0000 -51.0821
v  -79.8103 0.0000 -54.4266
v  -68.2248 -0.0000 -47.7377
v  -74.0175 -6.6889 -51.0821
v  -56.8760 0.0000 -70.7918
v  -58.8565 0.0000 -77.1808
v  -54.8954 -0.0000 -64.4029
v  -56.8760 -6.6889 -70.7918
v  -34.7325 0.0000 -67.4259
v  -34.9643 0.0000 -74.1108
v  -34.5007 -0.0000 -60.7411
v  -34.7325 -6.6889 -67.4259
v  -10.2212 0.0000 -60.5684
v  -10.8212 0.0000 -67.2303
v  -9.6212 -0.0000 -53.9065
v  -10.2212 -6.6889 -60.5684
v  1.6944 0.0000 -64.4400
v  -1.6384 0.0000 -70.2395
v  5.0271 -0.0000 -58.6405
v  1.6944 -6.6889 -64.4400
# 128 vertices

vn -0.6895 0.3052 -0.6569
vn 0.0000 1.0000 0.0000
vn -0.0000 1.0000 0.0000
vn -0.0119 0.3374 -0.9413
vn 0.6320 0.5777 0.5165
vn -0.0922 0.4736 0.8759
vn -0.2272 -0.9662 -0.1219
vn 0.0254 -0.9913 -0.1292
vn 0.3639 0.3592 -0.8594
vn -0.4031 0.3981 0.8240
vn 0.0191 -0.9989 -0.0430
vn 0.6986 0.3316 -0.6340
vn -0.0821 0.9933 -0.0812
vn 0.2979 -0.9089 -0.2919
vn 0.6951 0.4648 -0.5484
vn -0.2000 0.4999 0.8427
vn -0.3207 0.8600 -0.3970
vn -0.5911 -0.2904 -0.7525
vn -0.8326 -0.4820 0.2728
vn -0.5041 0.4027 0.7641
vn 0.1437 -0.9781 0.1507
vn 0.7317 0.3318 -0.5954
vn -0.6994 0.4714 0.5373
vn 0.1111 -0.9903 -0.0840
vn 0.8702 0.3773 -0.3169
vn -0.8727 0.3823 0.3038
vn 0.0061 -1.0000 -0.0024
vn 0.9362 0.3414 -0.0830
vn -0.8932 0.4368 0.1066
vn 0.1023 -0.9947 -0.0095
vn -0.0000 1.0000 -0.0000
vn 0.7662 0.3098 0.5630
vn -0.6077 0.5767 -0.5460
vn 0.1586 -0.9721 0.1728
vn 0.2815 0.3711 0.8849
vn -0.1703 0.4306 -0.8863
vn -0.0051 -0.9982 0.0596
vn 0.0000 1.0000 -0.0000
vn -0.0907 0.3377 0.9369
vn 0.2461 0.4909 -0.8357
vn -0.0632 -0.9890 0.1338
vn -0.6182 0.3321 0.7124
vn 0.6313 0.4373 -0.6404
vn -0.0905 -0.9926 0.0804
vn -0.6066 0.4854 0.6296
vn 0.5542 0.3354 -0.7618
vn 0.1283 -0.9878 -0.0887
vn -0.2630 0.4159 0.8705
vn 0.1998 0.3643 -0.9096
vn 0.0240 -0.9985 -0.0482
vn 0.2865 0.5331 0.7961
vn -0.2849 0.3174 -0.9045
vn -0.0719 -0.9819 -0.1749
vn 0.8063 0.4415 0.3938
vn -0.3693 0.5557 -0.7449
vn 0.0063 -0.9496 -0.3135
vn 0.9255 0.3465 0.1529
vn -0.2577 0.8462 0.4664
vn -0.4968 0.7279 -0.4726
vn -0.9151 -0.3116 -0.2557
vn -0.5591 -0.3146 0.7671
vn -0.2119 0.8374 0.5038
vn 0.3078 -0.9412 0.1392
vn 0.5919 0.3137 0.7425
vn -0.6509 0.5764 -0.4940
vn 0.1890 -0.9738 0.1266
vn -0.0993 0.3307 0.9385
vn 0.0003 0.4671 -0.8842
vn 0.0075 -0.9901 0.1404
vn -0.6014 0.3393 0.7233
vn 0.5001 0.4705 -0.7270
vn -0.0599 -0.9916 0.1142
vn -0.8071 0.3625 0.4660
vn 0.7913 0.4063 -0.4569
vn -0.0407 -0.9989 0.0235
vn -0.7165 0.4435 0.5384
vn 0.7799 0.3569 -0.5142
vn 0.0592 -0.9955 -0.0738
vn -0.7687 0.3543 0.5325
vn 0.7076 0.4239 -0.5653
vn -0.0497 -0.9969 0.0611
vn -0.9392 0.3331 0.0831
vn 0.8486 0.4968 -0.1819
vn -0.1505 -0.9868 0.0600
vn -0.8864 0.3625 -0.2880
vn 0.8690 0.4063 0.2824
vn -0.0447 -0.9989 -0.0145
vn -0.7838 0.3530 -0.5110
vn 0.7776 0.4121 0.4749
vn -0.0546 -0.9978 -0.0383
vn -0.3183 0.3118 -0.8952
vn 0.3083 0.5552 0.7724
vn -0.0870 -0.9762 -0.1988
vn 0.1798 0.3739 -0.9099
vn -0.2073 0.4006 0.8925
vn 0.0128 -0.9996 -0.0266
vn -0.0071 0.4615 -0.8871
vn 0.0279 0.3340 0.9421
vn -0.0068 -0.9914 0.1307
vn -0.6775 0.5902 -0.4389
vn 0.6762 0.3127 0.6671
vn 0.2552 -0.9628 0.0892
# 102 vertex normals

vt 0.0000 0.0000 0.0000
vt 0.2500 0.0000 0.0000
vt 0.2500 0.0333 0.0000
vt 0.0000 0.0333 0.0000
vt 0.5000 0.0000 0.0000
vt 0.5000 0.0333 0.0000
vt 0.7500 0.0000 0.0000
vt 0.7500 0.0333 0.0000
vt 1.0000 0.0000 0.0000
vt 1.0000 0.0333 0.0000
vt 0.2500 0.0667 0.0000
vt 0.0000 0.0667 0.0000
vt 0.5000 0.0667 0.0000
vt 0.7500 0.0667 0.0000
vt 1.0000 0.0667 0.0000
vt 0.2500 0.1000 0.0000
vt 0.0000 0.1000 0.0000
vt 0.5000 0.1000 0.0000
vt 0.7500 0.1000 0.0000
vt 1.0000 0.1000 0.0000
vt 0.2500 0.1333 0.0000
vt 0.0000 0.1333 0.0000
vt 0.5000 0.1333 0.0000
vt 0.7500 0.1333 0.0000
vt 1.0000 0.1333 0.0000
vt 0.2500 0.1667 0.0000
vt 0.0000 0.1667 0.0000
vt 0.5000 0.1667 0.0000
vt 0.7500 0.1667 0.0000
vt 1.0000 0.1667 0.0000
vt 0.2500 0.2000 0.0000
vt 0.0000 0.2000 0.0000
vt 0.5000 0.2000 0.0000
vt 0.7500 0.2000 0.0000
vt 1.0000 0.2000 0.0000
vt 0.2500 0.2333 0.0000
vt 0.0000 0.2333 0.0000
vt 0.5000 0.2333 0.0000
vt 0.7500 0.2333 0.0000
vt 1.0000 0.2333 0.0000
vt 0.2500 0.2667 0.0000
vt 0.0000 0.2667 0.0000
vt 0.5000 0.2667 0.0000
vt 0.7500 0.2667 0.0000
vt 1.0000 0.2667 0.0000
vt 0.2500 0.3000 0.0000
vt 0.0000 0.3000 0.0000
vt 0.5000 0.3000 0.0000
vt 0.7500 0.3000 0.0000
vt 1.0000 0.3000 0.0000
vt 0.2500 0.3333 0.0000
vt 0.0000 0.3333 0.0000
vt 0.5000 0.3333 0.0000
vt 0.7500 0.3333 0.0000
vt 1.0000 0.3333 0.0000
vt 0.2500 0.3667 0.0000
vt 0.0000 0.3667 0.0000
vt 0.5000 0.3667 0.0000
vt 0.7500 0.3667 0.0000
vt 1.0000 0.3667 0.0000
vt 0.2500 0.4000 0.0000
vt 0.0000 0.4000 0.0000
vt 0.5000 0.4000 0.0000
vt 0.7500 0.4000 0.0000
vt 1.0000 0.4000 0.0000
vt 0.2500 0.4333 0.0000
vt 0.0000 0.4333 0.0000
vt 0.5000 0.4333 0.0000
vt 0.7500 0.4333 0.0000
vt 1.0000 0.4333 0.0000
vt 0.2500 0.4667 0.0000
vt 0.0000 0.4667 0.0000
vt 0.5000 0.4667 0.0000
vt 0.7500 0.4667 0.0000
vt 1.0000 0.4667 0.0000
vt 0.2500 0.5000 0.0000
vt 0.0000 0.5000 0.0000
vt 0.5000 0.5000 0.0000
vt 0.7500 0.5000 0.0000
vt 1.0000 0.5000 0.0000
vt 0.2500 0.5333 0.0000
vt 0.0000 0.5333 0.0000
vt 0.5000 0.5333 0.0000
vt 0.7500 0.5333 0.0000
vt 1.0000 0.5333 0.0000
vt 0.2500 0.5667 0.0000
vt 0.0000 0.5667 0.0000
vt 0.5000 0.5667 0.0000
vt 0.7500 0.5667 0.0000
vt 1.0000 0.5667 0.0000
vt 0.2500 0.6000 0.0000
vt 0.0000 0.6000 0.0000
vt 0.5000 0.6000 0.0000
vt 0.7500 0.6000 0.0000
vt 1.0000 0.6000 0.0000
vt 0.2500 0.6333 0.0000
vt 0.0000 0.6333 0.0000
vt 0.5000 0.6333 0.0000
vt 0.7500 0.6333 0.0000
vt 1.0000 0.6333 0.0000
vt 0.2500 0.6667 0.0000
vt 0.0000 0.6667 0.0000
vt 0.5000 0.6667 0.0000
vt 0.7500 0.6667 0.0000
vt 1.0000 0.6667 0.0000
vt 0.2500 0.7000 0.0000
vt 0.0000 0.7000 0.0000
vt 0.5000 0.7000 0.0000
vt 0.7500 0.7000 0.0000
vt 1.0000 0.7000 0.0000
vt 0.2500 0.7333 0.0000
vt 0.0000 0.7333 0.0000
vt 0.5000 0.7333 0.0000
vt 0.7500 0.7333 0.0000
vt 1.0000 0.7333 0.0000
vt 0.2500 0.7667 0.0000
vt 0.0000 0.7667 0.0000
vt 0.5000 0.7667 0.0000
vt 0.7500 0.7667 0.0000
vt 1.0000 0.7667 0.0000
vt 0.2500 0.8000 0.0000
vt 0.0000 0.8000 0.0000
vt 0.5000 0.8000 0.0000
vt 0.7500 0.8000 0.0000
vt 1.0000 0.8000 0.0000
vt 0.2500 0.8333 0.0000
vt 0.0000 0.8333 0.0000
vt 0.5000 0.8333 0.0000
vt 0.7500 0.8333 0.0000
vt 1.0000 0.8333 0.0000
vt 0.2500 0.8667 0.0000
vt 0.0000 0.8667 0.0000
vt 0.5000 0.8667 0.0000
vt 0.7500 0.8667 0.0000
vt 1.0000 0.8667 0.0000
vt 0.2500 0.9000 0.0000
vt 0.0000 0.9000 0.0000
vt 0.5000 0.9000 0.0000
vt 0.7500 0.9000 0.0000
vt 1.0000 0.9000 0.0000
vt 0.2500 0.9333 0.0000
vt 0.0000 0.9333 0.0000
vt 0.5000 0.9333 0.0000
vt 0.7500 0.9333 0.0000
vt 1.0000 0.9333 0.0000
vt 0.2500 0.9667 0.0000
vt 0.0000 0.9667 0.0000
vt 0.5000 0.9667 0.0000
vt 0.7500 0.9667 0.0000
vt 1.0000 0.9667 0.0000
vt 0.2500 1.0000 0.0000
vt 0.0000 1.0000 0.0000
vt 0.5000 1.0000 0.0000
vt 0.7500 1.0000 0.0000
vt 1.0000 1.0000 0.0000
# 155 texture coords

o Racetrack
g Racetrack
usemtl wire_138008110
s 1
f 1/1/1 2/2/2 3/3/3 4/4/4 
f 2/2/2 5/5/5 6/6/6 3/3/3 
f 5/5/5 7/7/7 8/8/8 6/6/6 
f 7/7/7 1/9/1 4/10/4 8/8/8 
f 4/4/4 3/3/3 9/11/3 10/12/9 
f 3/3/3 6/6/6 11/13/10 9/11/3 
f 6/6/6 8/8/8 12/14/11 11/13/10 
f 8/8/8 4/10/4 10/15/9 12/14/11 
f 10/12/9 9/11/3 13/16/3 14/17/12 
f 9/11/3 11/13/10 15/18/13 13/16/3 
f 11/13/10 12/14/11 16/19/14 15/18/13 
f 12/14/11 10/15/9 14/20/12 16/19/14 
f 14/17/12 13/16/3 17/21/3 18/22/15 
f 13/16/3 15/18/13 19/23/16 17/21/3 
f 20/18/17 21/19/18 22/24/19 23/23/20 
f 16/19/14 14/20/12 18/25/15 24/24/21 
f 18/22/15 17/21/3 25/26/3 26/27/22 
f 17/21/3 19/23/16 27/28/23 25/26/3 
f 19/23/16 24/24/21 28/29/24 27/28/23 
f 24/24/21 18/25/15 26/30/22 28/29/24 
f 26/27/22 25/26/3 29/31/3 30/32/25 
f 25/26/3 27/28/23 31/33/26 29/31/3 
f 27/28/23 28/29/24 32/34/27 31/33/26 
f 28/29/24 26/30/22 30/35/25 32/34/27 
f 30/32/25 29/31/3 33/36/3 34/37/28 
f 29/31/3 31/33/26 35/38/29 33/36/3 
f 31/33/26 32/34/27 36/39/30 35/38/29 
f 32/34/27 30/35/25 34/40/28 36/39/30 
f 34/37/28 33/36/3 37/41/31 38/42/32 
f 33/36/3 35/38/29 39/43/33 37/41/31 
f 35/38/29 36/39/30 40/44/34 39/43/33 
f 36/39/30 34/40/28 38/45/32 40/44/34 
f 38/42/32 37/41/31 41/46/31 42/47/35 
f 37/41/31 39/43/33 43/48/36 41/46/31 
f 39/43/33 40/44/34 44/49/37 43/48/36 
f 40/44/34 38/45/32 42/50/35 44/49/37 
f 42/47/35 41/46/31 45/51/38 46/52/39 
f 41/46/31 43/48/36 47/53/40 45/51/38 
f 43/48/36 44/49/37 48/54/41 47/53/40 
f 44/49/37 42/50/35 46/55/39 48/54/41 
f 46/52/39 45/51/38 49/56/38 50/57/42 
f 45/51/38 47/53/40 51/58/43 49/56/38 
f 47/53/40 48/54/41 52/59/44 51/58/43 
f 48/54/41 46/55/39 50/60/42 52/59/44 
f 50/57/42 49/56/38 53/61/38 54/62/45 
f 49/56/38 51/58/43 55/63/46 53/61/38 
f 51/58/43 52/59/44 56/64/47 55/63/46 
f 52/59/44 50/60/42 54/65/45 56/64/47 
f 54/62/45 53/61/38 57/66/38 58/67/48 
f 53/61/38 55/63/46 59/68/49 57/66/38 
f 55/63/46 56/64/47 60/69/50 59/68/49 
f 56/64/47 54/65/45 58/70/48 60/69/50 
f 58/67/48 57/66/38 61/71/31 62/72/51 
f 57/66/38 59/68/49 63/73/52 61/71/31 
f 59/68/49 60/69/50 64/74/53 63/73/52 
f 60/69/50 58/70/48 62/75/51 64/74/53 
f 62/72/51 61/71/31 65/76/31 66/77/54 
f 61/71/31 63/73/52 67/78/55 65/76/31 
f 63/73/52 64/74/53 68/79/56 67/78/55 
f 64/74/53 62/75/51 66/80/54 68/79/56 
f 66/77/54 65/76/31 69/81/31 70/82/57 
f 65/76/31 67/78/55 71/83/58 69/81/31 
f 72/78/59 73/79/60 74/84/61 75/83/62 
f 68/79/56 66/80/54 70/85/57 76/84/63 
f 70/82/57 69/81/31 77/86/31 78/87/64 
f 69/81/31 71/83/58 79/88/65 77/86/31 
f 71/83/58 76/84/63 80/89/66 79/88/65 
f 76/84/63 70/85/57 78/90/64 80/89/66 
f 78/87/64 77/86/31 81/91/38 82/92/67 
f 77/86/31 79/88/65 83/93/68 81/91/38 
f 79/88/65 80/89/66 84/94/69 83/93/68 
f 80/89/66 78/90/64 82/95/67 84/94/69 
f 82/92/67 81/91/38 85/96/38 86/97/70 
f 81/91/38 83/93/68 87/98/71 85/96/38 
f 83/93/68 84/94/69 88/99/72 87/98/71 
f 84/94/69 82/95/67 86/100/70 88/99/72 
f 86/97/70 85/96/38 89/101/38 90/102/73 
f 85/96/38 87/98/71 91/103/74 89/101/38 
f 87/98/71 88/99/72 92/104/75 91/103/74 
f 88/99/72 86/100/70 90/105/73 92/104/75 
f 90/102/73 89/101/38 93/106/38 94/107/76 
f 89/101/38 91/103/74 95/108/77 93/106/38 
f 91/103/74 92/104/75 96/109/78 95/108/77 
f 92/104/75 90/105/73 94/110/76 96/109/78 
f 94/107/76 93/106/38 97/111/38 98/112/79 
f 93/106/38 95/108/77 99/113/80 97/111/38 
f 95/108/77 96/109/78 100/114/81 99/113/80 
f 96/109/78 94/110/76 98/115/79 100/114/81 
f 98/112/79 97/111/38 101/116/38 102/117/82 
f 97/111/38 99/113/80 103/118/83 101/116/38 
f 99/113/80 100/114/81 104/119/84 103/118/83 
f 100/114/81 98/115/79 102/120/82 104/119/84 
f 102/117/82 101/116/38 105/121/2 106/122/85 
f 101/116/38 103/118/83 107/123/86 105/121/2 
f 103/118/83 104/119/84 108/124/87 107/123/86 
f 104/119/84 102/120/82 106/125/85 108/124/87 
f 106/122/85 105/121/2 109/126/2 110/127/88 
f 105/121/2 107/123/86 111/128/89 109/126/2 
f 107/123/86 108/124/87 112/129/90 111/128/89 
f 108/124/87 106/125/85 110/130/88 112/129/90 
f 110/127/88 109/126/2 113/131/2 114/132/91 
f 109/126/2 111/128/89 115/133/92 113/131/2 
f 111/128/89 112/129/90 116/134/93 115/133/92 
f 112/129/90 110/130/88 114/135/91 116/134/93 
f 114/132/91 113/131/2 117/136/3 118/137/94 
f 113/131/2 115/133/92 119/138/95 117/136/3 
f 115/133/92 116/134/93 120/139/96 119/138/95 
f 116/134/93 114/135/91 118/140/94 120/139/96 
f 118/137/94 117/136/3 121/141/2 122/142/97 
f 117/136/3 119/138/95 123/143/98 121/141/2 
f 119/138/95 120/139/96 124/144/99 123/143/98 
f 120/139/96 118/140/94 122/145/97 124/144/99 
f 122/142/97 121/141/2 125/146/2 126/147/100 
f 121/141/2 123/143/98 127/148/101 125/146/2 
f 123/143/98 124/144/99 128/149/102 127/148/101 
f 124/144/99 122/145/97 126/150/100 128/149/102 
f 126/147/100 125/146/2 2/151/2 1/152/1 
f 125/146/2 127/148/101 5/153/5 2/151/2 
f 127/148/101 128/149/102 7/154/7 5/153/5 
f 128/149/102 126/150/100 1/155/1 7/154/7 
s off
f 67/78/55 68/79/56 73/79/60 72/78/59 
f 68/79/56 76/84/63 74/84/61 73/79/60 
f 76/84/63 71/83/58 75/83/62 74/84/61 
f 71/83/58 67/78/55 72/78/59 75/83/62 
f 15/18/13 16/19/14 21/19/18 20/18/17 
f 16/19/14 24/24/21 22/24/19 21/19/18 
f 24/24/21 19/23/16 23/23/20 22/24/19 
f 19/23/16 15/18/13 20/18/17 23/23/20 
# 128 polygons

